<mxfile host="app.diagrams.net" agent="Mozilla/5.0 (X11; Linux x86_64) AppleWebKit/537.36 (KHTML, like Gecko) Chrome/129.0.0.0 Safari/537.36" version="24.8.0">
  <diagram name="Página-1" id="GY3w6Jrewixj2jgtMnOA">
    <mxGraphModel dx="945" dy="494" grid="1" gridSize="10" guides="1" tooltips="1" connect="1" arrows="1" fold="1" page="1" pageScale="1" pageWidth="827" pageHeight="1169" background="#FFFFFF" math="0" shadow="0">
      <root>
        <mxCell id="0" />
        <mxCell id="1" parent="0" />
        <mxCell id="NxfbQDIxqytrORv3jFUt-1" value="Ciclista" style="swimlane;fontStyle=1;align=center;verticalAlign=top;childLayout=stackLayout;horizontal=1;startSize=26;horizontalStack=0;resizeParent=1;resizeParentMax=0;resizeLast=0;collapsible=1;marginBottom=0;whiteSpace=wrap;html=1;" vertex="1" parent="1">
          <mxGeometry x="260" y="168" width="300" height="110" as="geometry" />
        </mxCell>
        <mxCell id="NxfbQDIxqytrORv3jFUt-2" value="&lt;div&gt;-etapa: Etapa[21]&lt;/div&gt;" style="text;strokeColor=none;fillColor=none;align=left;verticalAlign=top;spacingLeft=4;spacingRight=4;overflow=hidden;rotatable=0;points=[[0,0.5],[1,0.5]];portConstraint=eastwest;whiteSpace=wrap;html=1;" vertex="1" parent="NxfbQDIxqytrORv3jFUt-1">
          <mxGeometry y="26" width="300" height="24" as="geometry" />
        </mxCell>
        <mxCell id="NxfbQDIxqytrORv3jFUt-3" value="" style="line;strokeWidth=1;fillColor=none;align=left;verticalAlign=middle;spacingTop=-1;spacingLeft=3;spacingRight=3;rotatable=0;labelPosition=right;points=[];portConstraint=eastwest;strokeColor=inherit;" vertex="1" parent="NxfbQDIxqytrORv3jFUt-1">
          <mxGeometry y="50" width="300" height="8" as="geometry" />
        </mxCell>
        <mxCell id="NxfbQDIxqytrORv3jFUt-4" value="&lt;div&gt;+calculaVencedorGeral(etapa: Etapa, outroCiclista: Ciclista) : Ciclista&lt;/div&gt;&lt;div&gt;+calculaVencedorEtapa(outroCiclista: Ciclista) : Ciclista&lt;br&gt;&lt;/div&gt;" style="text;strokeColor=none;fillColor=none;align=left;verticalAlign=top;spacingLeft=4;spacingRight=4;overflow=hidden;rotatable=0;points=[[0,0.5],[1,0.5]];portConstraint=eastwest;whiteSpace=wrap;html=1;" vertex="1" parent="NxfbQDIxqytrORv3jFUt-1">
          <mxGeometry y="58" width="300" height="52" as="geometry" />
        </mxCell>
        <mxCell id="NxfbQDIxqytrORv3jFUt-52" style="edgeStyle=orthogonalEdgeStyle;rounded=0;orthogonalLoop=1;jettySize=auto;html=1;entryX=0;entryY=0.5;entryDx=0;entryDy=0;endArrow=block;endFill=1;strokeColor=default;dashed=1;dashPattern=1 4;" edge="1" parent="1" source="NxfbQDIxqytrORv3jFUt-9" target="NxfbQDIxqytrORv3jFUt-2">
          <mxGeometry relative="1" as="geometry" />
        </mxCell>
        <mxCell id="NxfbQDIxqytrORv3jFUt-9" value="Participante" style="swimlane;fontStyle=1;align=center;verticalAlign=top;childLayout=stackLayout;horizontal=1;startSize=26;horizontalStack=0;resizeParent=1;resizeParentMax=0;resizeLast=0;collapsible=1;marginBottom=0;whiteSpace=wrap;html=1;" vertex="1" parent="1">
          <mxGeometry x="30" y="166" width="160" height="80" as="geometry" />
        </mxCell>
        <mxCell id="NxfbQDIxqytrORv3jFUt-10" value="-nome: String&lt;div&gt;-cidade: String&lt;/div&gt;&lt;div&gt;-numero: int&lt;/div&gt;&lt;div&gt;&lt;br&gt;&lt;/div&gt;" style="text;strokeColor=none;fillColor=none;align=left;verticalAlign=top;spacingLeft=4;spacingRight=4;overflow=hidden;rotatable=0;points=[[0,0.5],[1,0.5]];portConstraint=eastwest;whiteSpace=wrap;html=1;" vertex="1" parent="NxfbQDIxqytrORv3jFUt-9">
          <mxGeometry y="26" width="160" height="54" as="geometry" />
        </mxCell>
        <mxCell id="NxfbQDIxqytrORv3jFUt-43" style="edgeStyle=orthogonalEdgeStyle;rounded=0;orthogonalLoop=1;jettySize=auto;html=1;endArrow=diamondThin;endFill=0;endSize=15;" edge="1" parent="1" source="NxfbQDIxqytrORv3jFUt-13" target="NxfbQDIxqytrORv3jFUt-1">
          <mxGeometry relative="1" as="geometry" />
        </mxCell>
        <mxCell id="NxfbQDIxqytrORv3jFUt-13" value="Etapa" style="swimlane;fontStyle=1;align=center;verticalAlign=top;childLayout=stackLayout;horizontal=1;startSize=26;horizontalStack=0;resizeParent=1;resizeParentMax=0;resizeLast=0;collapsible=1;marginBottom=0;whiteSpace=wrap;html=1;" vertex="1" parent="1">
          <mxGeometry x="275" y="384" width="270" height="90" as="geometry" />
        </mxCell>
        <mxCell id="NxfbQDIxqytrORv3jFUt-14" value="-numero: int&lt;div&gt;-data: Data&lt;/div&gt;&lt;div&gt;-horaInicial: Hora&lt;/div&gt;&lt;div&gt;-duração : Duração&lt;/div&gt;" style="text;strokeColor=none;fillColor=none;align=left;verticalAlign=top;spacingLeft=4;spacingRight=4;overflow=hidden;rotatable=0;points=[[0,0.5],[1,0.5]];portConstraint=eastwest;whiteSpace=wrap;html=1;" vertex="1" parent="NxfbQDIxqytrORv3jFUt-13">
          <mxGeometry y="26" width="270" height="64" as="geometry" />
        </mxCell>
        <mxCell id="NxfbQDIxqytrORv3jFUt-21" value="Data" style="swimlane;fontStyle=1;align=center;verticalAlign=top;childLayout=stackLayout;horizontal=1;startSize=26;horizontalStack=0;resizeParent=1;resizeParentMax=0;resizeLast=0;collapsible=1;marginBottom=0;whiteSpace=wrap;html=1;" vertex="1" parent="1">
          <mxGeometry x="620" y="408" width="160" height="80" as="geometry" />
        </mxCell>
        <mxCell id="NxfbQDIxqytrORv3jFUt-22" value="+Data (dia: int, mês: int, ano: int)&lt;div&gt;-validarData(): boolean&lt;br&gt;&lt;/div&gt;" style="text;strokeColor=none;fillColor=none;align=left;verticalAlign=top;spacingLeft=4;spacingRight=4;overflow=hidden;rotatable=0;points=[[0,0.5],[1,0.5]];portConstraint=eastwest;whiteSpace=wrap;html=1;" vertex="1" parent="NxfbQDIxqytrORv3jFUt-21">
          <mxGeometry y="26" width="160" height="54" as="geometry" />
        </mxCell>
        <mxCell id="NxfbQDIxqytrORv3jFUt-64" style="edgeStyle=orthogonalEdgeStyle;rounded=0;orthogonalLoop=1;jettySize=auto;html=1;endArrow=diamondThin;endFill=0;endSize=15;" edge="1" parent="1">
          <mxGeometry relative="1" as="geometry">
            <mxPoint x="409.58" y="477" as="targetPoint" />
            <mxPoint x="409.58" y="567" as="sourcePoint" />
          </mxGeometry>
        </mxCell>
        <mxCell id="NxfbQDIxqytrORv3jFUt-29" value="Hora" style="swimlane;fontStyle=1;align=center;verticalAlign=top;childLayout=stackLayout;horizontal=1;startSize=26;horizontalStack=0;resizeParent=1;resizeParentMax=0;resizeLast=0;collapsible=1;marginBottom=0;whiteSpace=wrap;html=1;" vertex="1" parent="1">
          <mxGeometry x="330" y="561" width="160" height="114" as="geometry" />
        </mxCell>
        <mxCell id="NxfbQDIxqytrORv3jFUt-30" value="-hora: int&lt;div&gt;-minuto: int&amp;nbsp;&lt;/div&gt;&lt;div&gt;-segundo: int&lt;/div&gt;" style="text;strokeColor=none;fillColor=none;align=left;verticalAlign=top;spacingLeft=4;spacingRight=4;overflow=hidden;rotatable=0;points=[[0,0.5],[1,0.5]];portConstraint=eastwest;whiteSpace=wrap;html=1;" vertex="1" parent="NxfbQDIxqytrORv3jFUt-29">
          <mxGeometry y="26" width="160" height="54" as="geometry" />
        </mxCell>
        <mxCell id="NxfbQDIxqytrORv3jFUt-31" value="" style="line;strokeWidth=1;fillColor=none;align=left;verticalAlign=middle;spacingTop=-1;spacingLeft=3;spacingRight=3;rotatable=0;labelPosition=right;points=[];portConstraint=eastwest;strokeColor=inherit;" vertex="1" parent="NxfbQDIxqytrORv3jFUt-29">
          <mxGeometry y="80" width="160" height="8" as="geometry" />
        </mxCell>
        <mxCell id="NxfbQDIxqytrORv3jFUt-32" value="-validarHora(): boolean" style="text;strokeColor=none;fillColor=none;align=left;verticalAlign=top;spacingLeft=4;spacingRight=4;overflow=hidden;rotatable=0;points=[[0,0.5],[1,0.5]];portConstraint=eastwest;whiteSpace=wrap;html=1;" vertex="1" parent="NxfbQDIxqytrORv3jFUt-29">
          <mxGeometry y="88" width="160" height="26" as="geometry" />
        </mxCell>
        <mxCell id="NxfbQDIxqytrORv3jFUt-53" style="edgeStyle=orthogonalEdgeStyle;rounded=0;orthogonalLoop=1;jettySize=auto;html=1;endArrow=diamondThin;endFill=0;endSize=15;" edge="1" parent="1" source="NxfbQDIxqytrORv3jFUt-33" target="NxfbQDIxqytrORv3jFUt-14">
          <mxGeometry relative="1" as="geometry" />
        </mxCell>
        <mxCell id="NxfbQDIxqytrORv3jFUt-33" value="Duração" style="swimlane;fontStyle=1;align=center;verticalAlign=top;childLayout=stackLayout;horizontal=1;startSize=26;horizontalStack=0;resizeParent=1;resizeParentMax=0;resizeLast=0;collapsible=1;marginBottom=0;whiteSpace=wrap;html=1;" vertex="1" parent="1">
          <mxGeometry x="40" y="407" width="160" height="70" as="geometry" />
        </mxCell>
        <mxCell id="NxfbQDIxqytrORv3jFUt-34" value="-minuto: int&lt;div&gt;-segundo: int&lt;/div&gt;" style="text;strokeColor=none;fillColor=none;align=left;verticalAlign=top;spacingLeft=4;spacingRight=4;overflow=hidden;rotatable=0;points=[[0,0.5],[1,0.5]];portConstraint=eastwest;whiteSpace=wrap;html=1;" vertex="1" parent="NxfbQDIxqytrORv3jFUt-33">
          <mxGeometry y="26" width="160" height="44" as="geometry" />
        </mxCell>
        <mxCell id="NxfbQDIxqytrORv3jFUt-44" value="1&lt;div&gt;&lt;br&gt;&lt;/div&gt;" style="text;html=1;align=center;verticalAlign=middle;resizable=0;points=[];autosize=1;strokeColor=none;fillColor=none;" vertex="1" parent="1">
          <mxGeometry x="409" y="290" width="30" height="40" as="geometry" />
        </mxCell>
        <mxCell id="NxfbQDIxqytrORv3jFUt-45" value="21" style="text;html=1;align=center;verticalAlign=middle;resizable=0;points=[];autosize=1;strokeColor=none;fillColor=none;" vertex="1" parent="1">
          <mxGeometry x="404" y="354" width="40" height="30" as="geometry" />
        </mxCell>
        <mxCell id="NxfbQDIxqytrORv3jFUt-62" style="edgeStyle=orthogonalEdgeStyle;rounded=0;orthogonalLoop=1;jettySize=auto;html=1;entryX=0.999;entryY=0.597;entryDx=0;entryDy=0;entryPerimeter=0;endArrow=diamondThin;endFill=0;endSize=15;" edge="1" parent="1" source="NxfbQDIxqytrORv3jFUt-21" target="NxfbQDIxqytrORv3jFUt-14">
          <mxGeometry relative="1" as="geometry">
            <Array as="points">
              <mxPoint x="560" y="448" />
              <mxPoint x="560" y="448" />
            </Array>
          </mxGeometry>
        </mxCell>
      </root>
    </mxGraphModel>
  </diagram>
</mxfile>
